<svg xmlns="http://www.w3.org/2000/svg" xmlns:xlink="http://www.w3.org/1999/xlink" width="226" zoomAndPan="magnify" viewBox="0 0 169.5 82.499998" height="110" preserveAspectRatio="xMidYMid meet" version="1.0"><defs><g/><clipPath id="9e7aaebf2e"><path d="M 0.722656 0.0195312 L 71 0.0195312 L 71 60.613281 L 0.722656 60.613281 Z M 0.722656 0.0195312 " clip-rule="nonzero"/></clipPath><clipPath id="6b72fe3a0b"><rect x="0" width="71" y="0" height="61"/></clipPath><clipPath id="ef6546cae2"><path d="M 69 0.0195312 L 137.890625 0.0195312 L 137.890625 60.613281 L 69 60.613281 Z M 69 0.0195312 " clip-rule="nonzero"/></clipPath><clipPath id="d0de44220d"><rect x="0" width="69" y="0" height="61"/></clipPath><clipPath id="86d3681b38"><rect x="0" width="138" y="0" height="61"/></clipPath></defs><g transform="matrix(1, 0, 0, 1, 16, 10)"><g clip-path="url(#86d3681b38)"><g clip-path="url(#9e7aaebf2e)"><g><g clip-path="url(#6b72fe3a0b)"><g fill="#000000" fill-opacity="1"><g transform="translate(0.787376, 45.687978)"><g><path d="M 13.894531 0.9375 C 21.066406 0.9375 25.425781 -2.566406 25.425781 -8.191406 C 25.425781 -13.039062 22.042969 -15.445312 17.523438 -16.542969 L 11.734375 -17.96875 C 9.496094 -18.539062 8.351562 -19.640625 8.351562 -21.230469 C 8.351562 -23.1875 10.066406 -24.734375 13.160156 -24.734375 C 16.339844 -24.734375 18.703125 -23.0625 19.070312 -20.128906 L 24.9375 -20.128906 C 24.570312 -25.835938 20.128906 -29.664062 13.121094 -29.664062 C 5.664062 -29.664062 2.28125 -25.222656 2.28125 -20.578125 C 2.28125 -16.503906 4.890625 -13.652344 9.414062 -12.507812 L 14.75 -11.164062 C 17.523438 -10.472656 19.191406 -9.699219 19.191406 -7.621094 C 19.191406 -5.339844 17.15625 -3.992188 13.855469 -3.992188 C 10.023438 -3.992188 7.660156 -5.785156 7.496094 -9.003906 L 1.589844 -9.003906 C 1.753906 -2.730469 6.519531 0.9375 13.894531 0.9375 Z M 13.894531 0.9375 "/></g></g></g><g fill="#000000" fill-opacity="1"><g transform="translate(23.563181, 45.687978)"><g><path d="M 21.066406 0 C 20.457031 -1.058594 20.25 -2.445312 20.25 -4.402344 L 20.25 -13.691406 C 20.25 -18.867188 17.195312 -21.515625 11.164062 -21.515625 C 5.5 -21.515625 2.609375 -19.355469 2.199219 -14.75 L 7.457031 -14.667969 C 7.742188 -16.625 8.84375 -17.441406 11.207031 -17.441406 C 13.488281 -17.441406 14.75 -16.707031 14.75 -15.160156 L 14.75 -13.609375 L 7.417969 -12.144531 C 3.179688 -11.289062 1.019531 -9.128906 1.019531 -5.785156 C 1.019531 -1.957031 3.871094 0.609375 8.3125 0.609375 C 11.082031 0.609375 13.367188 -0.40625 14.792969 -2.117188 C 14.914062 -1.386719 15.078125 -0.734375 15.238281 0 Z M 9.941406 -3.625 C 7.824219 -3.625 6.640625 -4.644531 6.640625 -6.152344 C 6.640625 -7.539062 7.621094 -8.433594 9.371094 -8.800781 L 14.75 -9.941406 L 14.75 -8.394531 C 14.75 -5.296875 12.671875 -3.625 9.941406 -3.625 Z M 9.941406 -3.625 "/></g></g></g><g fill="#000000" fill-opacity="1"><g transform="translate(42.019988, 45.687978)"><g><path d="M 8.191406 0 L 8.191406 -29.011719 L 2.445312 -29.011719 L 2.445312 0 Z M 8.191406 0 "/></g></g></g><g fill="#000000" fill-opacity="1"><g transform="translate(48.416201, 45.687978)"><g><path d="M 15.363281 -9.78125 C 15.363281 -6.640625 13.691406 -4.644531 11.246094 -4.644531 C 9.210938 -4.644531 8.191406 -6.03125 8.191406 -8.230469 L 8.191406 -21.027344 L 2.445312 -21.027344 L 2.445312 -6.925781 C 2.445312 -2.363281 4.972656 0.53125 9.332031 0.53125 C 12.019531 0.53125 14.015625 -0.570312 15.402344 -2.851562 L 15.484375 0 L 21.109375 0 L 21.109375 -21.027344 L 15.363281 -21.027344 Z M 15.363281 -9.78125 "/></g></g></g></g></g></g><g clip-path="url(#ef6546cae2)"><g transform="matrix(1, 0, 0, 1, 69, 0)"><g clip-path="url(#d0de44220d)"><g fill="#38b6ff" fill-opacity="1"><g transform="translate(0.306688, 45.687978)"><g><path d="M 7.253906 -29.011719 L 3.464844 -29.011719 L 3.464844 0 L 22.371094 0 L 22.371094 -3.300781 L 7.253906 -3.300781 Z M 7.253906 -29.011719 "/></g></g></g><g fill="#38b6ff" fill-opacity="1"><g transform="translate(20.271067, 45.687978)"><g><path d="M 7.007812 -24.980469 L 7.007812 -29.011719 L 3.261719 -29.011719 L 3.261719 -24.980469 Z M 7.007812 0 L 7.007812 -21.027344 L 3.261719 -21.027344 L 3.261719 0 Z M 7.007812 0 "/></g></g></g><g fill="#38b6ff" fill-opacity="1"><g transform="translate(26.300568, 45.687978)"><g><path d="M 13.8125 -21.554688 C 10.714844 -21.554688 8.191406 -20.292969 6.765625 -18.050781 L 6.765625 -21.027344 L 3.261719 -21.027344 L 3.261719 0 L 7.007812 0 L 7.007812 -11.695312 C 7.007812 -16.707031 10.105469 -18.296875 13 -18.296875 C 15.851562 -18.296875 17.195312 -16.746094 17.195312 -13.855469 L 17.195312 0 L 20.945312 0 L 20.945312 -14.585938 C 20.945312 -19.03125 18.214844 -21.554688 13.8125 -21.554688 Z M 13.8125 -21.554688 "/></g></g></g><g fill="#38b6ff" fill-opacity="1"><g transform="translate(46.264947, 45.687978)"><g><path d="M 21.027344 -21.027344 L 16.300781 -21.027344 L 10.226562 -15.160156 L 6.84375 -11.652344 L 7.007812 -16.789062 L 7.007812 -29.011719 L 3.261719 -29.011719 L 3.261719 0 L 7.007812 0 L 7.007812 -8.191406 L 10.1875 -11.082031 L 12.429688 -7.335938 L 17.238281 0 L 21.636719 0 L 12.632812 -13.285156 Z M 21.027344 -21.027344 "/></g></g></g></g></g></g></g></g></svg>