<svg xmlns="http://www.w3.org/2000/svg" xmlns:xlink="http://www.w3.org/1999/xlink" width="500" zoomAndPan="magnify" viewBox="0 0 375 374.999991" height="500" preserveAspectRatio="xMidYMid meet" version="1.0"><defs><g/><clipPath id="fe483feb8e"><path d="M 64.171875 85.113281 L 179.167969 85.113281 L 179.167969 175.140625 L 64.171875 175.140625 Z M 64.171875 85.113281 " clip-rule="nonzero"/></clipPath><clipPath id="abe67eabc1"><path d="M 178.960938 85.113281 L 306.417969 85.113281 L 306.417969 175.140625 L 178.960938 175.140625 Z M 178.960938 85.113281 " clip-rule="nonzero"/></clipPath></defs><g clip-path="url(#fe483feb8e)"><path fill="#000000" d="M 247.515625 131.320312 L 247.554688 131.320312 C 247.535156 131.320312 247.519531 131.320312 247.515625 131.320312 Z M 241.113281 148.5 C 241.113281 148.496094 241.113281 148.492188 241.117188 148.488281 C 241.113281 148.503906 241.109375 148.515625 241.113281 148.5 Z M 228.824219 128.015625 L 228.816406 128.015625 C 228.824219 128.011719 228.832031 128.011719 228.824219 128.015625 Z M 227.746094 128.84375 L 227.738281 128.867188 C 227.726562 128.929688 227.734375 128.882812 227.746094 128.84375 Z M 204.992188 132.402344 L 205.015625 132.402344 C 204.972656 132.40625 204.9375 132.402344 204.992188 132.402344 Z M 193.796875 172.035156 L 193.796875 172.03125 C 193.804688 172.082031 193.804688 172.09375 193.796875 172.035156 Z M 189.53125 171.703125 L 189.527344 171.714844 C 189.507812 171.789062 189.507812 171.773438 189.53125 171.703125 Z M 165.816406 127.855469 C 165.835938 127.851562 165.851562 127.851562 165.867188 127.851562 Z M 164.546875 128.820312 C 164.546875 128.828125 164.542969 128.832031 164.546875 128.820312 Z M 138.140625 148.394531 C 138.148438 148.425781 138.152344 148.453125 138.15625 148.46875 Z M 134.945312 148.402344 C 134.945312 148.410156 134.945312 148.410156 134.945312 148.402344 Z M 129.648438 111.78125 L 129.660156 111.738281 C 129.664062 111.730469 129.660156 111.746094 129.648438 111.78125 Z M 127.332031 111.726562 C 127.324219 111.695312 127.328125 111.703125 127.332031 111.726562 Z M 123.128906 128.9375 C 123.140625 128.9375 123.148438 128.9375 123.160156 128.9375 C 123.183594 128.9375 123.160156 128.9375 123.128906 128.9375 Z M 275.382812 129.417969 L 259.738281 129.132812 L 251.914062 129 L 248.003906 128.9375 L 247.515625 128.929688 C 247.433594 128.929688 247.3125 128.9375 247.214844 128.949219 C 247.113281 128.964844 247.007812 128.988281 246.910156 129.023438 C 246.707031 129.085938 246.519531 129.179688 246.347656 129.304688 C 246.007812 129.546875 245.75 129.90625 245.625 130.304688 C 245.585938 130.429688 245.574219 130.480469 245.566406 130.507812 L 245.539062 130.625 L 245.480469 130.863281 L 245.007812 132.761719 L 242.445312 143.113281 L 242.277344 142.21875 L 240.839844 134.53125 L 237.945312 119.164062 L 236.488281 111.480469 L 236.441406 111.238281 L 236.417969 111.121094 C 236.398438 111.035156 236.425781 111.140625 236.371094 110.902344 C 236.300781 110.625 236.164062 110.316406 235.945312 110.054688 C 235.734375 109.789062 235.453125 109.574219 235.160156 109.441406 C 234.570312 109.175781 233.941406 109.167969 233.339844 109.421875 C 233.046875 109.546875 232.757812 109.753906 232.539062 110.015625 C 232.316406 110.277344 232.171875 110.574219 232.09375 110.851562 C 232.042969 111.054688 232.0625 110.976562 232.042969 111.054688 L 232.015625 111.171875 L 231.898438 111.648438 L 231.441406 113.546875 L 230.519531 117.347656 L 228.683594 124.949219 L 227.945312 128.007812 L 226.382812 127.996094 L 210.738281 127.882812 L 206.824219 127.859375 L 205.359375 127.847656 L 204.992188 127.847656 C 204.992188 127.847656 204.777344 127.847656 204.664062 127.859375 C 204.113281 127.910156 203.578125 128.101562 203.125 128.410156 C 202.671875 128.71875 202.296875 129.148438 202.050781 129.640625 C 201.988281 129.765625 201.933594 129.894531 201.890625 130.023438 C 201.832031 130.191406 201.828125 130.214844 201.820312 130.246094 L 201.609375 130.949219 L 199.378906 138.445312 L 194.929688 153.4375 L 192.40625 161.976562 L 192.238281 160.78125 L 190.082031 145.289062 L 187.90625 129.804688 L 183.511719 98.835938 L 182.402344 91.097656 L 181.988281 88.195312 L 181.917969 87.710938 L 181.902344 87.589844 C 181.882812 87.492188 181.910156 87.636719 181.859375 87.339844 C 181.792969 86.988281 181.640625 86.597656 181.390625 86.253906 C 181.144531 85.910156 180.808594 85.625 180.453125 85.4375 C 180.09375 85.246094 179.722656 85.148438 179.339844 85.121094 C 178.960938 85.097656 178.578125 85.144531 178.195312 85.285156 C 177.820312 85.421875 177.449219 85.660156 177.160156 85.96875 C 176.863281 86.277344 176.664062 86.640625 176.550781 86.976562 C 176.46875 87.230469 176.507812 87.117188 176.480469 87.203125 L 176.109375 88.492188 L 175.566406 90.371094 L 171.246094 105.402344 L 166.941406 120.4375 L 164.820312 127.859375 L 164.03125 127.863281 L 160.121094 127.890625 L 144.476562 128 L 142.523438 128.019531 L 142.03125 128.019531 L 141.910156 128.023438 C 141.882812 128.023438 141.671875 128.027344 141.558594 128.042969 C 141.289062 128.070312 141.019531 128.140625 140.765625 128.242188 C 140.261719 128.449219 139.816406 128.792969 139.492188 129.230469 C 139.328125 129.445312 139.195312 129.6875 139.097656 129.941406 C 139.046875 130.070312 139.011719 130.199219 138.976562 130.332031 L 138.949219 130.460938 L 138.09375 134.273438 L 136.589844 141.027344 L 136.46875 140.457031 L 133.230469 125.15625 L 131.601562 117.507812 L 130.785156 113.683594 L 130.375 111.773438 L 130.273438 111.296875 L 130.246094 111.175781 C 130.238281 111.152344 130.25 111.128906 130.152344 110.832031 C 130.066406 110.597656 129.921875 110.363281 129.722656 110.175781 C 129.527344 109.988281 129.292969 109.855469 129.050781 109.777344 C 128.8125 109.703125 128.570312 109.675781 128.328125 109.703125 C 128.082031 109.726562 127.839844 109.800781 127.613281 109.9375 C 127.382812 110.066406 127.179688 110.265625 127.035156 110.484375 C 126.902344 110.667969 126.796875 111.023438 126.792969 111.070312 L 126.6875 111.550781 L 123.367188 126.832031 L 122.953125 128.746094 L 122.910156 128.941406 L 122.839844 128.945312 L 118.929688 129.007812 L 111.105469 129.136719 L 95.460938 129.421875 C 85.03125 129.621094 74.601562 129.84375 64.171875 130.125 C 74.601562 130.40625 85.03125 130.628906 95.460938 130.828125 L 111.105469 131.113281 L 118.929688 131.246094 L 122.839844 131.304688 L 123.082031 131.308594 C 123.136719 131.308594 123.132812 131.3125 123.253906 131.308594 C 123.347656 131.308594 123.441406 131.296875 123.535156 131.28125 C 123.910156 131.214844 124.269531 131.046875 124.554688 130.792969 C 124.699219 130.667969 124.824219 130.523438 124.929688 130.363281 C 125.035156 130.199219 125.117188 130.023438 125.171875 129.84375 C 125.207031 129.734375 125.21875 129.671875 125.226562 129.648438 L 125.257812 129.53125 L 125.3125 129.292969 L 125.785156 127.394531 L 128.335938 117.097656 L 128.527344 118.125 L 129.964844 125.808594 L 132.863281 141.179688 L 134.320312 148.863281 L 134.363281 149.101562 L 134.386719 149.222656 C 134.410156 149.375 134.527344 149.757812 134.707031 150.011719 C 134.890625 150.292969 135.144531 150.535156 135.429688 150.703125 C 135.714844 150.867188 136.019531 150.964844 136.324219 150.992188 C 136.625 151.027344 136.933594 150.992188 137.234375 150.898438 C 137.535156 150.800781 137.832031 150.632812 138.078125 150.394531 C 138.324219 150.160156 138.511719 149.863281 138.613281 149.582031 C 138.742188 149.191406 138.699219 149.289062 138.71875 149.222656 L 138.894531 148.507812 L 139.355469 146.609375 L 142.109375 135.207031 L 142.824219 132.234375 L 144.476562 132.25 L 160.121094 132.359375 L 164.03125 132.386719 L 165.011719 132.390625 L 165.5 132.394531 L 165.742188 132.394531 L 165.867188 132.398438 C 165.992188 132.394531 166.148438 132.390625 166.289062 132.371094 C 166.863281 132.296875 167.414062 132.058594 167.859375 131.699219 C 168.308594 131.339844 168.660156 130.847656 168.855469 130.308594 C 168.914062 130.136719 168.933594 130.070312 168.9375 130.054688 L 169.183594 129.234375 L 171.414062 121.742188 L 175.863281 106.746094 L 178.375 98.253906 L 178.550781 99.535156 L 182.878906 130.511719 L 185.066406 145.996094 L 187.273438 161.480469 L 188.382812 169.21875 L 188.660156 171.152344 L 188.796875 172.121094 L 188.867188 172.605469 L 188.882812 172.726562 C 188.871094 172.632812 188.933594 173.160156 189.101562 173.5 C 189.257812 173.867188 189.53125 174.230469 189.851562 174.5 C 190.175781 174.769531 190.542969 174.949219 190.914062 175.046875 C 191.289062 175.144531 191.671875 175.167969 192.054688 175.105469 C 192.433594 175.046875 192.828125 174.898438 193.175781 174.664062 C 193.527344 174.425781 193.828125 174.09375 194.019531 173.75 C 194.203125 173.417969 194.28125 173.125 194.289062 173.09375 L 194.421875 172.632812 L 194.691406 171.695312 L 195.234375 169.816406 L 199.554688 154.785156 L 203.863281 139.75 L 205.960938 132.398438 L 206.824219 132.390625 L 210.738281 132.367188 L 226.382812 132.257812 L 228.335938 132.238281 L 228.824219 132.238281 C 228.886719 132.234375 229.066406 132.230469 229.179688 132.214844 C 229.308594 132.203125 229.4375 132.179688 229.566406 132.148438 C 229.820312 132.082031 230.066406 131.992188 230.292969 131.867188 C 230.753906 131.617188 231.144531 131.253906 231.421875 130.8125 C 231.5625 130.59375 231.671875 130.355469 231.753906 130.109375 C 231.789062 129.996094 231.832031 129.820312 231.832031 129.820312 L 231.859375 129.699219 L 232.710938 125.882812 L 234.191406 119.261719 L 234.320312 119.886719 L 237.5625 135.1875 L 239.191406 142.835938 L 240.007812 146.660156 L 240.414062 148.574219 L 240.515625 149.050781 C 240.539062 149.136719 240.507812 149.027344 240.570312 149.273438 C 240.628906 149.492188 240.75 149.746094 240.925781 149.949219 C 241.101562 150.15625 241.332031 150.320312 241.566406 150.417969 C 241.804688 150.523438 242.046875 150.566406 242.292969 150.566406 C 242.535156 150.5625 242.78125 150.511719 243.019531 150.402344 C 243.253906 150.292969 243.476562 150.125 243.644531 149.914062 C 243.816406 149.699219 243.921875 149.464844 243.980469 149.242188 C 244.007812 149.132812 244.003906 149.140625 244.015625 149.085938 L 244.121094 148.609375 L 247.441406 133.324219 L 247.855469 131.414062 L 247.875 131.3125 L 248.003906 131.3125 L 251.914062 131.25 L 259.738281 131.117188 L 275.382812 130.832031 C 285.8125 130.628906 296.242188 130.410156 306.671875 130.125 C 296.242188 129.839844 285.8125 129.621094 275.382812 129.417969 " fill-opacity="1" fill-rule="nonzero"/></g><g clip-path="url(#abe67eabc1)"><path fill="#000000" d="M 247.265625 131.320312 L 247.300781 131.320312 C 247.285156 131.320312 247.265625 131.320312 247.265625 131.320312 Z M 240.859375 148.5 C 240.859375 148.496094 240.863281 148.492188 240.863281 148.488281 C 240.859375 148.503906 240.855469 148.515625 240.859375 148.5 Z M 228.574219 128.015625 L 228.5625 128.015625 C 228.574219 128.011719 228.578125 128.011719 228.574219 128.015625 Z M 227.492188 128.84375 L 227.488281 128.867188 C 227.472656 128.929688 227.480469 128.882812 227.492188 128.84375 Z M 204.738281 132.402344 L 204.765625 132.402344 C 204.722656 132.40625 204.683594 132.402344 204.738281 132.402344 Z M 193.542969 172.035156 L 193.542969 172.03125 C 193.554688 172.082031 193.554688 172.09375 193.542969 172.035156 Z M 189.28125 171.703125 L 189.277344 171.714844 C 189.257812 171.789062 189.257812 171.773438 189.28125 171.703125 Z M 165.5625 127.855469 C 165.582031 127.851562 165.601562 127.851562 165.613281 127.851562 Z M 164.292969 128.820312 C 164.292969 128.828125 164.292969 128.832031 164.292969 128.820312 Z M 137.886719 148.394531 C 137.898438 148.425781 137.902344 148.453125 137.902344 148.46875 Z M 134.695312 148.402344 C 134.691406 148.410156 134.691406 148.410156 134.695312 148.402344 Z M 129.398438 111.78125 L 129.410156 111.738281 C 129.414062 111.730469 129.40625 111.746094 129.398438 111.78125 Z M 127.082031 111.726562 C 127.070312 111.695312 127.074219 111.703125 127.082031 111.726562 Z M 122.878906 128.9375 C 122.886719 128.9375 122.898438 128.9375 122.90625 128.9375 C 122.929688 128.9375 122.90625 128.9375 122.878906 128.9375 Z M 275.132812 129.417969 L 259.484375 129.132812 L 251.664062 129 L 247.753906 128.9375 L 247.265625 128.929688 C 247.179688 128.929688 247.0625 128.9375 246.960938 128.949219 C 246.859375 128.964844 246.753906 128.988281 246.65625 129.023438 C 246.457031 129.085938 246.265625 129.179688 246.097656 129.304688 C 245.757812 129.546875 245.496094 129.90625 245.371094 130.304688 C 245.332031 130.429688 245.324219 130.480469 245.316406 130.507812 L 245.285156 130.625 L 245.226562 130.863281 L 244.753906 132.761719 L 242.195312 143.113281 L 242.027344 142.21875 L 240.585938 134.53125 L 237.691406 119.164062 L 236.234375 111.480469 L 236.1875 111.238281 L 236.164062 111.121094 C 236.148438 111.035156 236.175781 111.140625 236.117188 110.902344 C 236.050781 110.625 235.910156 110.316406 235.695312 110.054688 C 235.480469 109.789062 235.199219 109.574219 234.910156 109.441406 C 234.316406 109.175781 233.6875 109.167969 233.089844 109.421875 C 232.792969 109.546875 232.507812 109.753906 232.289062 110.015625 C 232.0625 110.277344 231.921875 110.574219 231.84375 110.851562 C 231.789062 111.054688 231.8125 110.976562 231.792969 111.054688 L 231.761719 111.171875 L 231.648438 111.648438 L 231.1875 113.546875 L 230.269531 117.347656 L 228.429688 124.949219 L 227.695312 128.007812 L 226.128906 127.996094 L 210.484375 127.882812 L 206.574219 127.859375 L 205.59375 127.851562 L 205.105469 127.847656 L 204.738281 127.847656 C 204.738281 127.847656 204.523438 127.847656 204.410156 127.859375 C 203.863281 127.910156 203.324219 128.101562 202.871094 128.410156 C 202.417969 128.71875 202.042969 129.148438 201.796875 129.640625 C 201.738281 129.765625 201.679688 129.894531 201.636719 130.023438 C 201.582031 130.191406 201.578125 130.214844 201.566406 130.246094 L 201.355469 130.949219 L 199.125 138.445312 L 194.675781 153.4375 L 192.152344 161.976562 L 191.988281 160.78125 L 189.828125 145.289062 L 187.65625 129.804688 L 183.261719 98.835938 L 182.152344 91.097656 L 181.734375 88.195312 L 181.664062 87.710938 L 181.648438 87.589844 C 181.632812 87.492188 181.660156 87.636719 181.605469 87.339844 C 181.539062 86.988281 181.390625 86.597656 181.136719 86.253906 C 180.890625 85.910156 180.554688 85.625 180.199219 85.4375 C 179.839844 85.246094 179.46875 85.148438 179.089844 85.121094 C 178.710938 85.097656 178.328125 85.144531 177.945312 85.285156 C 177.566406 85.421875 177.195312 85.660156 176.90625 85.96875 C 176.609375 86.277344 176.410156 86.640625 176.296875 86.976562 C 176.214844 87.230469 176.253906 87.117188 176.226562 87.203125 L 175.855469 88.492188 L 175.316406 90.371094 L 170.992188 105.402344 L 166.6875 120.4375 L 164.570312 127.859375 L 163.78125 127.863281 L 159.871094 127.890625 L 144.226562 128 L 142.269531 128.019531 L 141.78125 128.019531 L 141.65625 128.023438 C 141.632812 128.023438 141.417969 128.027344 141.304688 128.042969 C 141.035156 128.070312 140.765625 128.140625 140.515625 128.242188 C 140.007812 128.449219 139.566406 128.792969 139.238281 129.230469 C 139.074219 129.445312 138.945312 129.6875 138.847656 129.941406 C 138.796875 130.070312 138.757812 130.199219 138.726562 130.332031 L 138.695312 130.460938 L 137.84375 134.273438 L 136.335938 141.027344 L 136.21875 140.457031 L 132.976562 125.15625 L 131.347656 117.507812 L 130.53125 113.683594 L 130.125 111.773438 L 130.019531 111.296875 L 129.996094 111.175781 C 129.984375 111.152344 130 111.128906 129.902344 110.832031 C 129.816406 110.597656 129.667969 110.363281 129.46875 110.175781 C 129.273438 109.988281 129.039062 109.855469 128.800781 109.777344 C 128.5625 109.703125 128.316406 109.675781 128.074219 109.703125 C 127.832031 109.726562 127.585938 109.800781 127.359375 109.9375 C 127.132812 110.066406 126.929688 110.265625 126.785156 110.484375 C 126.648438 110.667969 126.542969 111.023438 126.539062 111.070312 L 126.4375 111.550781 L 123.113281 126.832031 L 122.703125 128.746094 L 122.660156 128.941406 L 122.585938 128.945312 L 118.675781 129.007812 L 110.851562 129.136719 L 95.207031 129.421875 C 84.777344 129.621094 74.347656 129.84375 63.917969 130.125 C 74.347656 130.40625 84.777344 130.628906 95.207031 130.828125 L 110.851562 131.113281 L 118.675781 131.246094 L 122.585938 131.304688 L 122.832031 131.308594 C 122.882812 131.308594 122.878906 131.3125 123 131.308594 C 123.09375 131.308594 123.1875 131.296875 123.28125 131.28125 C 123.660156 131.214844 124.019531 131.046875 124.304688 130.792969 C 124.445312 130.667969 124.574219 130.523438 124.679688 130.363281 C 124.78125 130.199219 124.863281 130.023438 124.921875 129.84375 C 124.953125 129.734375 124.96875 129.671875 124.972656 129.648438 L 125.003906 129.53125 L 125.0625 129.292969 L 125.535156 127.394531 L 128.082031 117.097656 L 128.273438 118.125 L 129.714844 125.808594 L 132.609375 141.179688 L 134.066406 148.863281 L 134.113281 149.101562 L 134.132812 149.222656 C 134.160156 149.375 134.277344 149.757812 134.453125 150.011719 C 134.636719 150.292969 134.894531 150.535156 135.179688 150.703125 C 135.460938 150.867188 135.769531 150.964844 136.070312 150.992188 C 136.375 151.027344 136.683594 150.992188 136.980469 150.898438 C 137.285156 150.800781 137.578125 150.632812 137.828125 150.394531 C 138.074219 150.160156 138.257812 149.863281 138.363281 149.582031 C 138.488281 149.191406 138.445312 149.289062 138.46875 149.222656 L 138.523438 148.984375 L 138.640625 148.507812 L 139.101562 146.609375 L 141.855469 135.207031 L 142.574219 132.234375 L 144.226562 132.25 L 159.871094 132.359375 L 163.78125 132.386719 L 164.757812 132.390625 L 165.246094 132.394531 L 165.492188 132.394531 L 165.613281 132.398438 C 165.742188 132.394531 165.894531 132.390625 166.035156 132.371094 C 166.609375 132.296875 167.160156 132.058594 167.609375 131.699219 C 168.058594 131.339844 168.40625 130.847656 168.605469 130.308594 C 168.664062 130.136719 168.679688 130.070312 168.683594 130.054688 L 168.929688 129.234375 L 171.160156 121.742188 L 175.613281 106.746094 L 178.121094 98.253906 L 178.300781 99.535156 L 182.628906 130.511719 L 184.816406 145.996094 L 187.019531 161.480469 L 188.128906 169.21875 L 188.40625 171.152344 L 188.546875 172.121094 L 188.613281 172.605469 L 188.632812 172.726562 C 188.617188 172.632812 188.679688 173.160156 188.847656 173.5 C 189.007812 173.867188 189.277344 174.230469 189.597656 174.5 C 189.921875 174.769531 190.292969 174.949219 190.664062 175.046875 C 191.035156 175.144531 191.417969 175.167969 191.800781 175.105469 C 192.183594 175.046875 192.574219 174.898438 192.925781 174.664062 C 193.273438 174.425781 193.574219 174.09375 193.765625 173.75 C 193.949219 173.417969 194.03125 173.125 194.035156 173.09375 L 194.171875 172.632812 L 194.441406 171.695312 L 194.980469 169.816406 L 199.304688 154.785156 L 203.609375 139.75 L 205.710938 132.398438 L 206.574219 132.390625 L 210.484375 132.367188 L 226.128906 132.257812 L 228.085938 132.238281 L 228.574219 132.238281 C 228.632812 132.234375 228.8125 132.230469 228.929688 132.214844 C 229.058594 132.203125 229.1875 132.179688 229.3125 132.148438 C 229.566406 132.082031 229.8125 131.992188 230.042969 131.867188 C 230.5 131.617188 230.890625 131.253906 231.171875 130.8125 C 231.308594 130.59375 231.421875 130.355469 231.5 130.109375 C 231.539062 129.996094 231.578125 129.820312 231.578125 129.820312 L 231.605469 129.699219 L 232.460938 125.882812 L 233.9375 119.261719 L 234.070312 119.886719 L 237.308594 135.1875 L 238.9375 142.835938 L 239.753906 146.660156 L 240.164062 148.574219 L 240.265625 149.050781 C 240.285156 149.136719 240.253906 149.027344 240.316406 149.273438 C 240.375 149.492188 240.5 149.746094 240.675781 149.949219 C 240.851562 150.15625 241.078125 150.320312 241.3125 150.417969 C 241.550781 150.523438 241.792969 150.566406 242.039062 150.566406 C 242.285156 150.5625 242.527344 150.511719 242.765625 150.402344 C 243 150.292969 243.222656 150.125 243.390625 149.914062 C 243.5625 149.699219 243.667969 149.464844 243.726562 149.242188 C 243.753906 149.132812 243.75 149.140625 243.761719 149.085938 L 243.867188 148.609375 L 247.1875 133.324219 L 247.601562 131.414062 L 247.621094 131.3125 L 247.753906 131.3125 L 251.664062 131.25 L 259.484375 131.117188 L 275.132812 130.832031 C 285.558594 130.628906 295.992188 130.410156 306.417969 130.125 C 295.992188 129.839844 285.558594 129.621094 275.132812 129.417969 " fill-opacity="1" fill-rule="nonzero"/></g><g fill="#000000" fill-opacity="1"><g transform="translate(30.760278, 241.830785)"><g><path d="M 32.1875 2.171875 C 48.8125 2.171875 58.90625 -5.953125 58.90625 -18.96875 C 58.90625 -30.203125 51.078125 -35.78125 40.59375 -38.328125 L 27.1875 -41.640625 C 22 -42.953125 19.359375 -45.5 19.359375 -49.1875 C 19.359375 -53.71875 23.3125 -57.296875 30.5 -57.296875 C 37.859375 -57.296875 43.328125 -53.4375 44.1875 -46.640625 L 57.78125 -46.640625 C 56.921875 -59.859375 46.640625 -68.734375 30.40625 -68.734375 C 13.125 -68.734375 5.28125 -58.4375 5.28125 -47.671875 C 5.28125 -38.234375 11.328125 -31.625 21.8125 -28.984375 L 34.171875 -25.875 C 40.59375 -24.265625 44.46875 -22.46875 44.46875 -17.65625 C 44.46875 -12.375 39.75 -9.25 32.09375 -9.25 C 23.21875 -9.25 17.75 -13.40625 17.375 -20.859375 L 3.6875 -20.859375 C 4.0625 -6.328125 15.109375 2.171875 32.1875 2.171875 Z M 32.1875 2.171875 "/></g></g></g><g fill="#000000" fill-opacity="1"><g transform="translate(83.524217, 241.830785)"><g><path d="M 48.8125 0 C 47.390625 -2.453125 46.921875 -5.671875 46.921875 -10.203125 L 46.921875 -31.71875 C 46.921875 -43.703125 39.84375 -49.84375 25.875 -49.84375 C 12.75 -49.84375 6.046875 -44.84375 5.09375 -34.171875 L 17.28125 -33.984375 C 17.9375 -38.515625 20.484375 -40.40625 25.96875 -40.40625 C 31.25 -40.40625 34.171875 -38.703125 34.171875 -35.125 L 34.171875 -31.53125 L 17.1875 -28.140625 C 7.359375 -26.15625 2.359375 -21.140625 2.359375 -13.40625 C 2.359375 -4.53125 8.96875 1.421875 19.265625 1.421875 C 25.671875 1.421875 30.96875 -0.9375 34.265625 -4.90625 C 34.546875 -3.203125 34.9375 -1.703125 35.3125 0 Z M 23.03125 -8.40625 C 18.125 -8.40625 15.390625 -10.765625 15.390625 -14.25 C 15.390625 -17.46875 17.65625 -19.546875 21.71875 -20.390625 L 34.171875 -23.03125 L 34.171875 -19.453125 C 34.171875 -12.265625 29.359375 -8.40625 23.03125 -8.40625 Z M 23.03125 -8.40625 "/></g></g></g><g fill="#000000" fill-opacity="1"><g transform="translate(126.282479, 241.830785)"><g><path d="M 18.96875 0 L 18.96875 -67.21875 L 5.671875 -67.21875 L 5.671875 0 Z M 18.96875 0 "/></g></g></g><g fill="#000000" fill-opacity="1"><g transform="translate(141.100361, 241.830785)"><g><path d="M 35.59375 -22.65625 C 35.59375 -15.390625 31.71875 -10.765625 26.0625 -10.765625 C 21.328125 -10.765625 18.96875 -13.96875 18.96875 -19.0625 L 18.96875 -48.71875 L 5.671875 -48.71875 L 5.671875 -16.046875 C 5.671875 -5.46875 11.515625 1.234375 21.625 1.234375 C 27.84375 1.234375 32.46875 -1.328125 35.6875 -6.609375 L 35.875 0 L 48.90625 0 L 48.90625 -48.71875 L 35.59375 -48.71875 Z M 35.59375 -22.65625 "/></g></g></g><g fill="#000000" fill-opacity="1"><g transform="translate(189.496706, 241.830785)"><g><path d="M 16.796875 -67.21875 L 8.03125 -67.21875 L 8.03125 0 L 51.828125 0 L 51.828125 -7.640625 L 16.796875 -7.640625 Z M 16.796875 -67.21875 "/></g></g></g><g fill="#000000" fill-opacity="1"><g transform="translate(235.747509, 241.830785)"><g><path d="M 16.234375 -57.875 L 16.234375 -67.21875 L 7.546875 -67.21875 L 7.546875 -57.875 Z M 16.234375 0 L 16.234375 -48.71875 L 7.546875 -48.71875 L 7.546875 0 Z M 16.234375 0 "/></g></g></g><g fill="#000000" fill-opacity="1"><g transform="translate(249.715841, 241.830785)"><g><path d="M 32 -49.9375 C 24.828125 -49.9375 18.96875 -47.015625 15.671875 -41.828125 L 15.671875 -48.71875 L 7.546875 -48.71875 L 7.546875 0 L 16.234375 0 L 16.234375 -27.09375 C 16.234375 -38.703125 23.40625 -42.390625 30.109375 -42.390625 C 36.71875 -42.390625 39.84375 -38.796875 39.84375 -32.09375 L 39.84375 0 L 48.53125 0 L 48.53125 -33.796875 C 48.53125 -44.09375 42.203125 -49.9375 32 -49.9375 Z M 32 -49.9375 "/></g></g></g><g fill="#000000" fill-opacity="1"><g transform="translate(295.966644, 241.830785)"><g><path d="M 48.71875 -48.71875 L 37.765625 -48.71875 L 23.703125 -35.125 L 15.859375 -27 L 16.234375 -38.890625 L 16.234375 -67.21875 L 7.546875 -67.21875 L 7.546875 0 L 16.234375 0 L 16.234375 -18.96875 L 23.609375 -25.671875 L 28.796875 -17 L 39.9375 0 L 50.125 0 L 29.265625 -30.78125 Z M 48.71875 -48.71875 "/></g></g></g></svg>