<svg xmlns="http://www.w3.org/2000/svg" xmlns:xlink="http://www.w3.org/1999/xlink" width="500" zoomAndPan="magnify" viewBox="0 0 375 374.999991" height="500" preserveAspectRatio="xMidYMid meet" version="1.0"><defs><g/><clipPath id="94051d7250"><path d="M 64.171875 85.113281 L 179.167969 85.113281 L 179.167969 175.140625 L 64.171875 175.140625 Z M 64.171875 85.113281 " clip-rule="nonzero"/></clipPath><clipPath id="aa8ed6e75b"><path d="M 178.960938 85.113281 L 306.417969 85.113281 L 306.417969 175.140625 L 178.960938 175.140625 Z M 178.960938 85.113281 " clip-rule="nonzero"/></clipPath></defs><g clip-path="url(#94051d7250)"><path fill="#38b6ff" d="M 247.605469 131.359375 L 247.644531 131.359375 C 247.625 131.359375 247.609375 131.363281 247.605469 131.359375 Z M 241.199219 148.554688 C 241.199219 148.550781 241.199219 148.546875 241.203125 148.542969 C 241.199219 148.558594 241.195312 148.570312 241.199219 148.554688 Z M 228.90625 128.050781 L 228.894531 128.050781 C 228.90625 128.050781 228.910156 128.050781 228.90625 128.050781 Z M 227.824219 128.882812 L 227.816406 128.90625 C 227.804688 128.96875 227.8125 128.921875 227.824219 128.882812 Z M 205.058594 132.445312 L 205.085938 132.445312 C 205.042969 132.445312 205.003906 132.445312 205.058594 132.445312 Z M 193.859375 172.109375 L 193.859375 172.105469 C 193.867188 172.15625 193.867188 172.167969 193.859375 172.109375 Z M 189.59375 171.777344 L 189.589844 171.792969 C 189.570312 171.863281 189.570312 171.847656 189.59375 171.777344 Z M 165.863281 127.890625 C 165.882812 127.890625 165.902344 127.890625 165.914062 127.890625 Z M 164.597656 128.859375 C 164.59375 128.867188 164.59375 128.867188 164.597656 128.859375 Z M 138.175781 148.449219 C 138.183594 148.484375 138.191406 148.507812 138.191406 148.523438 Z M 134.980469 148.457031 C 134.980469 148.464844 134.980469 148.464844 134.980469 148.457031 Z M 129.679688 111.804688 L 129.691406 111.761719 C 129.695312 111.753906 129.691406 111.769531 129.679688 111.804688 Z M 127.363281 111.75 C 127.355469 111.71875 127.359375 111.726562 127.363281 111.75 Z M 123.160156 128.976562 C 123.167969 128.976562 123.179688 128.976562 123.1875 128.976562 C 123.210938 128.976562 123.1875 128.976562 123.160156 128.976562 Z M 275.484375 129.457031 L 259.832031 129.167969 L 252.003906 129.039062 L 248.09375 128.976562 L 247.605469 128.96875 C 247.519531 128.96875 247.402344 128.972656 247.304688 128.988281 C 247.199219 129.003906 247.09375 129.027344 246.996094 129.058594 C 246.796875 129.121094 246.605469 129.21875 246.4375 129.339844 C 246.097656 129.585938 245.839844 129.945312 245.710938 130.34375 C 245.675781 130.46875 245.664062 130.523438 245.65625 130.546875 L 245.625 130.664062 L 245.566406 130.902344 L 245.09375 132.800781 L 242.53125 143.164062 L 242.363281 142.269531 L 240.925781 134.574219 L 238.027344 119.191406 L 236.570312 111.503906 L 236.523438 111.261719 L 236.5 111.144531 C 236.484375 111.058594 236.511719 111.160156 236.453125 110.925781 C 236.386719 110.644531 236.246094 110.339844 236.03125 110.074219 C 235.816406 109.808594 235.535156 109.597656 235.242188 109.460938 C 234.652344 109.195312 234.023438 109.1875 233.421875 109.441406 C 233.128906 109.570312 232.839844 109.777344 232.621094 110.035156 C 232.394531 110.296875 232.253906 110.597656 232.175781 110.875 C 232.121094 111.078125 232.144531 111 232.125 111.078125 L 232.097656 111.195312 L 231.980469 111.671875 L 231.519531 113.570312 L 230.601562 117.375 L 228.761719 124.984375 L 228.027344 128.042969 L 226.460938 128.03125 L 210.808594 127.921875 L 206.894531 127.894531 L 205.914062 127.890625 L 205.425781 127.886719 L 205.183594 127.882812 L 205.058594 127.882812 C 205.0625 127.882812 204.84375 127.886719 204.730469 127.898438 C 204.183594 127.945312 203.644531 128.136719 203.191406 128.449219 C 202.738281 128.757812 202.363281 129.1875 202.117188 129.679688 C 202.054688 129.804688 202 129.933594 201.957031 130.0625 C 201.898438 130.230469 201.894531 130.253906 201.886719 130.285156 L 201.675781 130.988281 L 199.445312 138.492188 L 194.992188 153.496094 L 192.46875 162.042969 L 192.300781 160.84375 L 190.144531 145.34375 L 187.96875 129.84375 L 183.570312 98.847656 L 182.460938 91.101562 L 182.042969 88.195312 L 181.972656 87.710938 L 181.957031 87.589844 C 181.941406 87.492188 181.96875 87.640625 181.917969 87.339844 C 181.851562 86.992188 181.699219 86.601562 181.445312 86.253906 C 181.199219 85.910156 180.863281 85.625 180.507812 85.4375 C 180.148438 85.246094 179.777344 85.148438 179.398438 85.121094 C 179.015625 85.097656 178.632812 85.144531 178.253906 85.285156 C 177.875 85.421875 177.503906 85.660156 177.214844 85.96875 C 176.914062 86.28125 176.71875 86.640625 176.601562 86.980469 C 176.523438 87.230469 176.5625 87.117188 176.535156 87.203125 L 176.164062 88.496094 L 175.621094 90.375 L 171.296875 105.421875 L 166.988281 120.46875 L 164.871094 127.898438 L 164.082031 127.902344 L 160.167969 127.925781 L 144.515625 128.039062 L 142.558594 128.054688 L 142.070312 128.058594 L 141.949219 128.058594 C 141.921875 128.058594 141.707031 128.0625 141.597656 128.078125 C 141.324219 128.109375 141.058594 128.179688 140.804688 128.28125 C 140.296875 128.484375 139.855469 128.832031 139.527344 129.265625 C 139.363281 129.484375 139.234375 129.726562 139.132812 129.980469 C 139.085938 130.109375 139.046875 130.238281 139.015625 130.371094 L 138.984375 130.5 L 138.128906 134.316406 L 136.625 141.074219 L 136.503906 140.503906 L 133.261719 125.191406 L 131.632812 117.535156 L 130.816406 113.710938 L 130.40625 111.796875 L 130.304688 111.316406 L 130.28125 111.199219 C 130.269531 111.171875 130.285156 111.152344 130.183594 110.851562 C 130.097656 110.621094 129.953125 110.386719 129.753906 110.199219 C 129.558594 110.007812 129.324219 109.878906 129.082031 109.800781 C 128.84375 109.722656 128.601562 109.699219 128.355469 109.722656 C 128.113281 109.75 127.871094 109.824219 127.640625 109.957031 C 127.414062 110.089844 127.210938 110.289062 127.066406 110.507812 C 126.933594 110.691406 126.828125 111.046875 126.820312 111.09375 L 126.71875 111.574219 L 123.394531 126.871094 L 122.980469 128.78125 L 122.9375 128.980469 L 122.867188 128.980469 L 118.953125 129.042969 L 111.128906 129.175781 L 95.476562 129.460938 C 85.039062 129.660156 74.605469 129.882812 64.171875 130.164062 C 74.605469 130.445312 85.039062 130.667969 95.476562 130.867188 L 111.128906 131.152344 L 118.953125 131.285156 L 122.867188 131.347656 L 123.113281 131.351562 C 123.164062 131.351562 123.160156 131.355469 123.28125 131.347656 C 123.375 131.347656 123.46875 131.335938 123.5625 131.320312 C 123.941406 131.257812 124.300781 131.085938 124.585938 130.835938 C 124.730469 130.707031 124.855469 130.5625 124.960938 130.402344 C 125.0625 130.238281 125.144531 130.0625 125.203125 129.882812 C 125.234375 129.769531 125.25 129.710938 125.257812 129.6875 L 125.285156 129.570312 L 125.34375 129.332031 L 125.816406 127.433594 L 128.363281 117.125 L 128.554688 118.152344 L 129.996094 125.84375 L 132.894531 141.226562 L 134.351562 148.917969 L 134.398438 149.15625 L 134.421875 149.277344 C 134.445312 149.429688 134.5625 149.8125 134.742188 150.066406 C 134.925781 150.347656 135.179688 150.59375 135.464844 150.757812 C 135.75 150.925781 136.054688 151.019531 136.359375 151.050781 C 136.660156 151.082031 136.96875 151.050781 137.269531 150.953125 C 137.574219 150.855469 137.867188 150.6875 138.113281 150.449219 C 138.359375 150.214844 138.546875 149.917969 138.648438 149.636719 C 138.777344 149.25 138.734375 149.34375 138.757812 149.277344 L 138.8125 149.039062 L 138.929688 148.5625 L 139.390625 146.664062 L 140.308594 142.859375 L 142.148438 135.25 L 142.863281 132.277344 L 144.515625 132.289062 L 160.167969 132.402344 L 164.082031 132.425781 L 165.058594 132.433594 L 165.550781 132.4375 L 165.914062 132.4375 C 166.042969 132.4375 166.199219 132.429688 166.339844 132.410156 C 166.910156 132.335938 167.464844 132.101562 167.910156 131.738281 C 168.359375 131.378906 168.710938 130.890625 168.90625 130.347656 C 168.964844 130.175781 168.984375 130.109375 168.988281 130.09375 L 169.234375 129.273438 L 171.464844 121.773438 L 175.917969 106.765625 L 178.429688 98.265625 L 178.605469 99.546875 L 182.9375 130.550781 L 185.125 146.050781 L 187.332031 161.546875 L 188.441406 169.292969 L 188.71875 171.230469 L 188.859375 172.195312 L 188.929688 172.679688 L 188.945312 172.800781 C 188.929688 172.707031 188.992188 173.238281 189.160156 173.578125 C 189.320312 173.945312 189.589844 174.308594 189.914062 174.578125 C 190.234375 174.84375 190.605469 175.027344 190.976562 175.125 C 191.351562 175.222656 191.730469 175.246094 192.117188 175.183594 C 192.496094 175.125 192.890625 174.976562 193.238281 174.742188 C 193.589844 174.503906 193.890625 174.171875 194.082031 173.824219 C 194.265625 173.496094 194.34375 173.199219 194.351562 173.171875 L 194.484375 172.710938 L 194.757812 171.769531 L 195.296875 169.890625 L 199.621094 154.847656 L 203.929688 139.796875 L 206.03125 132.4375 L 206.894531 132.433594 L 210.808594 132.410156 L 226.460938 132.296875 L 228.417969 132.28125 L 228.90625 132.277344 C 228.96875 132.277344 229.144531 132.273438 229.261719 132.257812 C 229.390625 132.242188 229.519531 132.21875 229.644531 132.1875 C 229.898438 132.125 230.144531 132.03125 230.375 131.90625 C 230.832031 131.660156 231.222656 131.292969 231.503906 130.855469 C 231.644531 130.632812 231.753906 130.394531 231.835938 130.148438 C 231.871094 130.035156 231.914062 129.855469 231.914062 129.855469 L 231.941406 129.738281 L 232.792969 125.917969 L 234.273438 119.292969 L 234.402344 119.917969 L 237.644531 135.230469 L 239.273438 142.886719 L 240.089844 146.714844 L 240.5 148.628906 L 240.601562 149.105469 C 240.621094 149.191406 240.59375 149.082031 240.65625 149.328125 C 240.710938 149.550781 240.835938 149.800781 241.011719 150.003906 C 241.1875 150.210938 241.414062 150.375 241.652344 150.476562 C 241.890625 150.582031 242.132812 150.625 242.378906 150.621094 C 242.621094 150.617188 242.867188 150.566406 243.105469 150.457031 C 243.339844 150.347656 243.5625 150.179688 243.730469 149.96875 C 243.902344 149.757812 244.007812 149.519531 244.066406 149.296875 C 244.09375 149.1875 244.089844 149.199219 244.101562 149.144531 L 244.207031 148.664062 L 247.527344 133.367188 L 247.941406 131.457031 L 247.964844 131.355469 L 248.09375 131.351562 L 252.003906 131.289062 L 259.832031 131.160156 L 275.484375 130.871094 C 285.917969 130.671875 296.355469 130.449219 306.789062 130.164062 C 296.355469 129.878906 285.917969 129.660156 275.484375 129.457031 " fill-opacity="1" fill-rule="nonzero"/></g><g clip-path="url(#aa8ed6e75b)"><path fill="#000000" d="M 247.265625 131.320312 L 247.300781 131.320312 C 247.285156 131.320312 247.265625 131.320312 247.265625 131.320312 Z M 240.859375 148.5 C 240.859375 148.496094 240.863281 148.492188 240.863281 148.488281 C 240.859375 148.503906 240.855469 148.515625 240.859375 148.5 Z M 228.574219 128.015625 L 228.5625 128.015625 C 228.574219 128.011719 228.578125 128.011719 228.574219 128.015625 Z M 227.492188 128.84375 L 227.488281 128.867188 C 227.472656 128.929688 227.480469 128.882812 227.492188 128.84375 Z M 204.738281 132.402344 L 204.765625 132.402344 C 204.722656 132.40625 204.683594 132.402344 204.738281 132.402344 Z M 193.542969 172.035156 L 193.542969 172.03125 C 193.554688 172.082031 193.554688 172.09375 193.542969 172.035156 Z M 189.28125 171.703125 L 189.277344 171.714844 C 189.257812 171.789062 189.257812 171.773438 189.28125 171.703125 Z M 165.5625 127.855469 C 165.582031 127.851562 165.601562 127.851562 165.613281 127.851562 Z M 164.292969 128.820312 C 164.292969 128.828125 164.292969 128.832031 164.292969 128.820312 Z M 137.886719 148.394531 C 137.898438 148.425781 137.902344 148.453125 137.902344 148.46875 Z M 134.695312 148.402344 C 134.691406 148.410156 134.691406 148.410156 134.695312 148.402344 Z M 129.398438 111.78125 L 129.410156 111.738281 C 129.414062 111.730469 129.40625 111.746094 129.398438 111.78125 Z M 127.082031 111.726562 C 127.070312 111.695312 127.074219 111.703125 127.082031 111.726562 Z M 122.878906 128.9375 C 122.886719 128.9375 122.898438 128.9375 122.90625 128.9375 C 122.929688 128.9375 122.90625 128.9375 122.878906 128.9375 Z M 275.132812 129.417969 L 259.484375 129.132812 L 251.664062 129 L 247.753906 128.9375 L 247.265625 128.929688 C 247.179688 128.929688 247.0625 128.9375 246.960938 128.949219 C 246.859375 128.964844 246.753906 128.988281 246.65625 129.023438 C 246.457031 129.085938 246.265625 129.179688 246.097656 129.304688 C 245.757812 129.546875 245.496094 129.90625 245.371094 130.304688 C 245.332031 130.429688 245.324219 130.480469 245.316406 130.507812 L 245.285156 130.625 L 245.226562 130.863281 L 244.753906 132.761719 L 242.195312 143.113281 L 242.027344 142.21875 L 240.585938 134.53125 L 237.691406 119.164062 L 236.234375 111.480469 L 236.1875 111.238281 L 236.164062 111.121094 C 236.148438 111.035156 236.175781 111.140625 236.117188 110.902344 C 236.050781 110.625 235.910156 110.316406 235.695312 110.054688 C 235.480469 109.789062 235.199219 109.574219 234.910156 109.441406 C 234.316406 109.175781 233.6875 109.167969 233.089844 109.421875 C 232.792969 109.546875 232.507812 109.753906 232.289062 110.015625 C 232.0625 110.277344 231.921875 110.574219 231.84375 110.851562 C 231.789062 111.054688 231.8125 110.976562 231.792969 111.054688 L 231.761719 111.171875 L 231.648438 111.648438 L 231.1875 113.546875 L 230.269531 117.347656 L 228.429688 124.949219 L 227.695312 128.007812 L 226.128906 127.996094 L 210.484375 127.882812 L 206.574219 127.859375 L 205.59375 127.851562 L 205.105469 127.847656 L 204.738281 127.847656 C 204.738281 127.847656 204.523438 127.847656 204.410156 127.859375 C 203.863281 127.910156 203.324219 128.101562 202.871094 128.410156 C 202.417969 128.71875 202.042969 129.148438 201.796875 129.640625 C 201.738281 129.765625 201.679688 129.894531 201.636719 130.023438 C 201.582031 130.191406 201.578125 130.214844 201.566406 130.246094 L 201.355469 130.949219 L 199.125 138.445312 L 194.675781 153.4375 L 192.152344 161.976562 L 191.988281 160.78125 L 189.828125 145.289062 L 187.65625 129.804688 L 183.261719 98.835938 L 182.152344 91.097656 L 181.734375 88.195312 L 181.664062 87.710938 L 181.648438 87.589844 C 181.632812 87.492188 181.660156 87.636719 181.605469 87.339844 C 181.539062 86.988281 181.390625 86.597656 181.136719 86.253906 C 180.890625 85.910156 180.554688 85.625 180.199219 85.4375 C 179.839844 85.246094 179.46875 85.148438 179.089844 85.121094 C 178.710938 85.097656 178.328125 85.144531 177.945312 85.285156 C 177.566406 85.421875 177.195312 85.660156 176.90625 85.96875 C 176.609375 86.277344 176.410156 86.640625 176.296875 86.976562 C 176.214844 87.230469 176.253906 87.117188 176.226562 87.203125 L 175.855469 88.492188 L 175.316406 90.371094 L 170.992188 105.402344 L 166.6875 120.4375 L 164.570312 127.859375 L 163.78125 127.863281 L 159.871094 127.890625 L 144.226562 128 L 142.269531 128.019531 L 141.78125 128.019531 L 141.65625 128.023438 C 141.632812 128.023438 141.417969 128.027344 141.304688 128.042969 C 141.035156 128.070312 140.765625 128.140625 140.515625 128.242188 C 140.007812 128.449219 139.566406 128.792969 139.238281 129.230469 C 139.074219 129.445312 138.945312 129.6875 138.847656 129.941406 C 138.796875 130.070312 138.757812 130.199219 138.726562 130.332031 L 138.695312 130.460938 L 137.84375 134.273438 L 136.335938 141.027344 L 136.21875 140.457031 L 132.976562 125.15625 L 131.347656 117.507812 L 130.53125 113.683594 L 130.125 111.773438 L 130.019531 111.296875 L 129.996094 111.175781 C 129.984375 111.152344 130 111.128906 129.902344 110.832031 C 129.816406 110.597656 129.667969 110.363281 129.46875 110.175781 C 129.273438 109.988281 129.039062 109.855469 128.800781 109.777344 C 128.5625 109.703125 128.316406 109.675781 128.074219 109.703125 C 127.832031 109.726562 127.585938 109.800781 127.359375 109.9375 C 127.132812 110.066406 126.929688 110.265625 126.785156 110.484375 C 126.648438 110.667969 126.542969 111.023438 126.539062 111.070312 L 126.4375 111.550781 L 123.113281 126.832031 L 122.703125 128.746094 L 122.660156 128.941406 L 122.585938 128.945312 L 118.675781 129.007812 L 110.851562 129.136719 L 95.207031 129.421875 C 84.777344 129.621094 74.347656 129.84375 63.917969 130.125 C 74.347656 130.40625 84.777344 130.628906 95.207031 130.828125 L 110.851562 131.113281 L 118.675781 131.246094 L 122.585938 131.304688 L 122.832031 131.308594 C 122.882812 131.308594 122.878906 131.3125 123 131.308594 C 123.09375 131.308594 123.1875 131.296875 123.28125 131.28125 C 123.660156 131.214844 124.019531 131.046875 124.304688 130.792969 C 124.445312 130.667969 124.574219 130.523438 124.679688 130.363281 C 124.78125 130.199219 124.863281 130.023438 124.921875 129.84375 C 124.953125 129.734375 124.96875 129.671875 124.972656 129.648438 L 125.003906 129.53125 L 125.0625 129.292969 L 125.535156 127.394531 L 128.082031 117.097656 L 128.273438 118.125 L 129.714844 125.808594 L 132.609375 141.179688 L 134.066406 148.863281 L 134.113281 149.101562 L 134.132812 149.222656 C 134.160156 149.375 134.277344 149.757812 134.453125 150.011719 C 134.636719 150.292969 134.894531 150.535156 135.179688 150.703125 C 135.460938 150.867188 135.769531 150.964844 136.070312 150.992188 C 136.375 151.027344 136.683594 150.992188 136.980469 150.898438 C 137.285156 150.800781 137.578125 150.632812 137.828125 150.394531 C 138.074219 150.160156 138.257812 149.863281 138.363281 149.582031 C 138.488281 149.191406 138.445312 149.289062 138.46875 149.222656 L 138.523438 148.984375 L 138.640625 148.507812 L 139.101562 146.609375 L 141.855469 135.207031 L 142.574219 132.234375 L 144.226562 132.25 L 159.871094 132.359375 L 163.78125 132.386719 L 164.757812 132.390625 L 165.246094 132.394531 L 165.492188 132.394531 L 165.613281 132.398438 C 165.742188 132.394531 165.894531 132.390625 166.035156 132.371094 C 166.609375 132.296875 167.160156 132.058594 167.609375 131.699219 C 168.058594 131.339844 168.40625 130.847656 168.605469 130.308594 C 168.664062 130.136719 168.679688 130.070312 168.683594 130.054688 L 168.929688 129.234375 L 171.160156 121.742188 L 175.613281 106.746094 L 178.121094 98.253906 L 178.300781 99.535156 L 182.628906 130.511719 L 184.816406 145.996094 L 187.019531 161.480469 L 188.128906 169.21875 L 188.40625 171.152344 L 188.546875 172.121094 L 188.613281 172.605469 L 188.632812 172.726562 C 188.617188 172.632812 188.679688 173.160156 188.847656 173.5 C 189.007812 173.867188 189.277344 174.230469 189.597656 174.5 C 189.921875 174.769531 190.292969 174.949219 190.664062 175.046875 C 191.035156 175.144531 191.417969 175.167969 191.800781 175.105469 C 192.183594 175.046875 192.574219 174.898438 192.925781 174.664062 C 193.273438 174.425781 193.574219 174.09375 193.765625 173.75 C 193.949219 173.417969 194.03125 173.125 194.035156 173.09375 L 194.171875 172.632812 L 194.441406 171.695312 L 194.980469 169.816406 L 199.304688 154.785156 L 203.609375 139.75 L 205.710938 132.398438 L 206.574219 132.390625 L 210.484375 132.367188 L 226.128906 132.257812 L 228.085938 132.238281 L 228.574219 132.238281 C 228.632812 132.234375 228.8125 132.230469 228.929688 132.214844 C 229.058594 132.203125 229.1875 132.179688 229.3125 132.148438 C 229.566406 132.082031 229.8125 131.992188 230.042969 131.867188 C 230.5 131.617188 230.890625 131.253906 231.171875 130.8125 C 231.308594 130.59375 231.421875 130.355469 231.5 130.109375 C 231.539062 129.996094 231.578125 129.816406 231.578125 129.816406 L 231.605469 129.699219 L 232.460938 125.882812 L 233.9375 119.261719 L 234.070312 119.886719 L 237.308594 135.1875 L 238.9375 142.835938 L 239.753906 146.660156 L 240.164062 148.574219 L 240.265625 149.050781 C 240.285156 149.136719 240.253906 149.027344 240.316406 149.273438 C 240.375 149.492188 240.5 149.742188 240.675781 149.949219 C 240.851562 150.15625 241.078125 150.320312 241.3125 150.417969 C 241.550781 150.523438 241.792969 150.566406 242.039062 150.566406 C 242.285156 150.5625 242.527344 150.511719 242.765625 150.402344 C 243 150.292969 243.222656 150.125 243.390625 149.914062 C 243.5625 149.699219 243.667969 149.464844 243.726562 149.242188 C 243.753906 149.132812 243.75 149.140625 243.761719 149.085938 L 243.867188 148.609375 L 247.1875 133.324219 L 247.601562 131.414062 L 247.621094 131.3125 L 247.753906 131.3125 L 251.664062 131.25 L 259.484375 131.117188 L 275.132812 130.832031 C 285.558594 130.628906 295.992188 130.410156 306.417969 130.125 C 295.992188 129.839844 285.558594 129.621094 275.132812 129.417969 " fill-opacity="1" fill-rule="nonzero"/></g><g fill="#38b6ff" fill-opacity="1"><g transform="translate(30.760278, 241.830727)"><g><path d="M 32.1875 2.171875 C 48.8125 2.171875 58.90625 -5.953125 58.90625 -18.96875 C 58.90625 -30.203125 51.078125 -35.78125 40.59375 -38.328125 L 27.1875 -41.640625 C 22 -42.953125 19.359375 -45.5 19.359375 -49.1875 C 19.359375 -53.71875 23.3125 -57.296875 30.5 -57.296875 C 37.859375 -57.296875 43.328125 -53.4375 44.1875 -46.640625 L 57.78125 -46.640625 C 56.921875 -59.859375 46.640625 -68.734375 30.40625 -68.734375 C 13.125 -68.734375 5.28125 -58.4375 5.28125 -47.671875 C 5.28125 -38.234375 11.328125 -31.625 21.8125 -28.984375 L 34.171875 -25.875 C 40.59375 -24.265625 44.46875 -22.46875 44.46875 -17.65625 C 44.46875 -12.375 39.75 -9.25 32.09375 -9.25 C 23.21875 -9.25 17.75 -13.40625 17.375 -20.859375 L 3.6875 -20.859375 C 4.0625 -6.328125 15.109375 2.171875 32.1875 2.171875 Z M 32.1875 2.171875 "/></g></g></g><g fill="#38b6ff" fill-opacity="1"><g transform="translate(83.524217, 241.830727)"><g><path d="M 48.8125 0 C 47.390625 -2.453125 46.921875 -5.671875 46.921875 -10.203125 L 46.921875 -31.71875 C 46.921875 -43.703125 39.84375 -49.84375 25.875 -49.84375 C 12.75 -49.84375 6.046875 -44.84375 5.09375 -34.171875 L 17.28125 -33.984375 C 17.9375 -38.515625 20.484375 -40.40625 25.96875 -40.40625 C 31.25 -40.40625 34.171875 -38.703125 34.171875 -35.125 L 34.171875 -31.53125 L 17.1875 -28.140625 C 7.359375 -26.15625 2.359375 -21.140625 2.359375 -13.40625 C 2.359375 -4.53125 8.96875 1.421875 19.265625 1.421875 C 25.671875 1.421875 30.96875 -0.9375 34.265625 -4.90625 C 34.546875 -3.203125 34.9375 -1.703125 35.3125 0 Z M 23.03125 -8.40625 C 18.125 -8.40625 15.390625 -10.765625 15.390625 -14.25 C 15.390625 -17.46875 17.65625 -19.546875 21.71875 -20.390625 L 34.171875 -23.03125 L 34.171875 -19.453125 C 34.171875 -12.265625 29.359375 -8.40625 23.03125 -8.40625 Z M 23.03125 -8.40625 "/></g></g></g><g fill="#38b6ff" fill-opacity="1"><g transform="translate(126.282479, 241.830727)"><g><path d="M 18.96875 0 L 18.96875 -67.21875 L 5.671875 -67.21875 L 5.671875 0 Z M 18.96875 0 "/></g></g></g><g fill="#38b6ff" fill-opacity="1"><g transform="translate(141.100361, 241.830727)"><g><path d="M 35.59375 -22.65625 C 35.59375 -15.390625 31.71875 -10.765625 26.0625 -10.765625 C 21.328125 -10.765625 18.96875 -13.96875 18.96875 -19.0625 L 18.96875 -48.71875 L 5.671875 -48.71875 L 5.671875 -16.046875 C 5.671875 -5.46875 11.515625 1.234375 21.625 1.234375 C 27.84375 1.234375 32.46875 -1.328125 35.6875 -6.609375 L 35.875 0 L 48.90625 0 L 48.90625 -48.71875 L 35.59375 -48.71875 Z M 35.59375 -22.65625 "/></g></g></g><g fill="#000000" fill-opacity="1"><g transform="translate(189.496706, 241.830727)"><g><path d="M 16.796875 -67.21875 L 8.03125 -67.21875 L 8.03125 0 L 51.828125 0 L 51.828125 -7.640625 L 16.796875 -7.640625 Z M 16.796875 -67.21875 "/></g></g></g><g fill="#000000" fill-opacity="1"><g transform="translate(235.747509, 241.830727)"><g><path d="M 16.234375 -57.875 L 16.234375 -67.21875 L 7.546875 -67.21875 L 7.546875 -57.875 Z M 16.234375 0 L 16.234375 -48.71875 L 7.546875 -48.71875 L 7.546875 0 Z M 16.234375 0 "/></g></g></g><g fill="#000000" fill-opacity="1"><g transform="translate(249.715841, 241.830727)"><g><path d="M 32 -49.9375 C 24.828125 -49.9375 18.96875 -47.015625 15.671875 -41.828125 L 15.671875 -48.71875 L 7.546875 -48.71875 L 7.546875 0 L 16.234375 0 L 16.234375 -27.09375 C 16.234375 -38.703125 23.40625 -42.390625 30.109375 -42.390625 C 36.71875 -42.390625 39.84375 -38.796875 39.84375 -32.09375 L 39.84375 0 L 48.53125 0 L 48.53125 -33.796875 C 48.53125 -44.09375 42.203125 -49.9375 32 -49.9375 Z M 32 -49.9375 "/></g></g></g><g fill="#000000" fill-opacity="1"><g transform="translate(295.966644, 241.830727)"><g><path d="M 48.71875 -48.71875 L 37.765625 -48.71875 L 23.703125 -35.125 L 15.859375 -27 L 16.234375 -38.890625 L 16.234375 -67.21875 L 7.546875 -67.21875 L 7.546875 0 L 16.234375 0 L 16.234375 -18.96875 L 23.609375 -25.671875 L 28.796875 -17 L 39.9375 0 L 50.125 0 L 29.265625 -30.78125 Z M 48.71875 -48.71875 "/></g></g></g></svg>